<svg width="54" height="65" viewBox="0 0 54 65" fill="none" xmlns="http://www.w3.org/2000/svg">
<path d="M45.3003 19.6554C40.1334 14.4885 33.8698 11.8945 26.5306 11.8945C19.2126 11.8945 12.9279 14.4885 7.76095 19.6554C2.59401 24.8224 0 31.086 0 38.4251V64.9347H6.41121V44.0982H46.629V64.9347H53.0402V38.4251C53.0402 31.1071 50.4462 24.8224 45.2792 19.6554H45.3003ZM16.4498 21.0263C19.55 19.2126 22.9032 18.3057 26.5306 18.3057C30.158 18.3057 33.5113 19.2126 36.6114 21.0263C39.7116 22.7978 42.1369 25.2231 43.9084 28.3232C45.5956 31.2125 46.5024 34.3127 46.6079 37.6659H6.43231C6.53776 34.3127 7.42352 31.2125 9.0685 28.3232C10.8822 25.2231 13.3286 22.7978 16.4287 21.0263H16.4498Z" fill="#1A3234"/>
<path d="M38.6993 6.4534V0H14.362V6.4534H38.6993Z" fill="#1A3234"/>
</svg>
