<svg width="53" height="53" viewBox="0 0 53 53" fill="none" xmlns="http://www.w3.org/2000/svg">
<path d="M44.8996 7.88749L44.6676 7.6555C39.5851 2.57292 33.3636 0 26.151 0C18.9384 0 12.9068 2.48857 7.88749 7.42352L7.65551 7.6555C2.57293 12.717 0 18.9384 0 26.1299V52.302H5.69417V31.4656H46.629V52.302H52.3232V26.1088C52.3232 19.0228 49.8135 12.8857 44.8996 7.8664V7.88749ZM15.8804 8.47799L16.0702 8.37255C19.1704 6.60102 22.5447 5.71526 26.151 5.71526C29.7573 5.71526 33.2793 6.6432 36.4216 8.47799H36.4427C39.5429 10.2706 42.0315 12.7381 43.803 15.8382L43.8452 15.9226C45.6167 18.9595 46.5446 22.2705 46.6079 25.7925H5.69417C5.75744 22.2705 6.6643 18.9384 8.39365 15.9226C10.2284 12.7803 12.7592 10.2706 15.8804 8.47799Z" fill="#1A3234"/>
</svg>
