<svg width="54" height="54" viewBox="0 0 54 54" fill="none" xmlns="http://www.w3.org/2000/svg">
<path d="M9.0685 16.4287C10.8822 13.3497 13.3497 10.8822 16.4288 9.13177H16.4498C19.5289 7.31807 22.9243 6.41122 26.5096 6.41122H53.0191V0H26.5096C19.318 0 13.0966 2.53075 7.99294 7.52897L7.76096 7.76095C2.61511 12.9068 0 19.2126 0 26.5306C0 33.8487 2.61511 40.1334 7.76096 45.3003L7.99294 45.5323C13.0966 50.5305 19.318 53.0402 26.5096 53.0402H53.0191V46.629H26.5096C23.0087 46.629 19.7187 45.7854 16.724 44.1404L16.4288 43.9717C13.3497 42.158 10.8611 39.6905 9.0685 36.6114C7.29698 33.5324 6.41122 30.1369 6.41122 26.5306C6.41122 22.9243 7.25482 19.7398 8.8998 16.7451L9.0685 16.4498V16.4287Z" fill="#1A3234"/>
</svg>
