<svg width="54" height="54" viewBox="0 0 54 54" fill="none" xmlns="http://www.w3.org/2000/svg">
<path d="M45.2792 7.76095C40.1123 2.59401 33.8487 0 26.5095 0H0V53.0402H26.5095C33.8276 53.0402 40.1123 50.4462 45.2792 45.2792C50.4462 40.1123 53.0402 33.8487 53.0402 26.5095C53.0402 19.1704 50.4462 12.9068 45.2792 7.73986V7.76095ZM36.6114 43.9717C33.5113 45.7432 30.158 46.629 26.5306 46.629H6.41122V6.41122H26.5095C30.1369 6.41122 33.4902 7.31807 36.5903 9.13177C39.6905 10.9033 42.1158 13.3286 43.8873 16.4287C45.701 19.5289 46.6079 22.8821 46.6079 26.5095C46.6079 30.1369 45.701 33.4902 43.8873 36.5903C42.1158 39.6905 39.6905 42.1369 36.5903 43.9506L36.6114 43.9717Z" fill="#1A3234"/>
</svg>
