<svg width="62" height="54" viewBox="0 0 62 54" fill="none" xmlns="http://www.w3.org/2000/svg">
<path d="M56.6465 5.18803L56.4989 5.0404C53.2089 1.70825 49.1808 0.0210892 44.5411 0.0210892C39.9014 0.0210892 38.5517 0.801402 35.9366 2.31985H35.9155C33.8487 3.56413 32.1194 5.16694 30.7485 7.10717C29.4199 5.25129 27.7538 3.69067 25.7503 2.46748L25.5183 2.31985C22.9454 0.780313 20.0562 0 16.956 0C12.3796 0 8.39364 1.64498 5.10367 4.87168L4.95604 5.01931C1.66607 8.30928 0 12.3374 0 16.9771V53.0402H6.41122V16.9771C6.41122 14.1511 7.36025 11.7891 9.2794 9.72228L9.46921 9.53247C11.5782 7.44461 14.0245 6.41122 16.9771 6.41122C19.9296 6.41122 22.3549 7.42352 24.4217 9.53247H24.4428C26.5306 11.6625 27.5429 14.0878 27.5429 16.9771V53.0402H34.0174V16.9771C34.0174 14.1511 34.9664 11.7891 36.8856 9.72228L37.0754 9.53247C39.1844 7.44461 41.6307 6.41122 44.5833 6.41122C47.5358 6.41122 49.8557 7.38134 51.8803 9.36375L52.0279 9.53247C54.1368 11.6414 55.1491 14.0667 55.1491 16.9771V53.0402H61.5603V16.9771C61.5603 12.4006 59.9154 8.43581 56.6887 5.16694L56.6465 5.18803Z" fill="#1A3234"/>
</svg>
