<svg width="54" height="54" viewBox="0 0 54 54" fill="none" xmlns="http://www.w3.org/2000/svg">
<path d="M45.5112 7.99293L45.2792 7.76095C40.1334 2.6151 33.8276 0 26.5095 0C19.1915 0 13.0966 2.53075 7.99293 7.52897L7.76095 7.76095C2.6151 12.9068 0 19.2126 0 26.5306V53.0402H6.41122V26.5306C6.41122 23.0298 7.2548 19.7398 8.89979 16.7451L9.0685 16.4498C10.8611 13.3708 13.3497 10.9033 16.4498 9.15286C19.5289 7.36025 22.9243 6.43231 26.5306 6.43231C30.1369 6.43231 33.5113 7.33916 36.5903 9.13177H36.6114C39.6905 10.9033 42.1369 13.3708 43.9084 16.4287V16.4709C45.7221 19.55 46.629 22.9243 46.629 26.5306V53.0402H53.0402V26.5306C53.0402 19.3391 50.5094 13.1177 45.5112 8.01402V7.99293Z" fill="#1A3234"/>
</svg>
