<svg width="391" height="66" viewBox="0 0 391 66" fill="none" xmlns="http://www.w3.org/2000/svg">
<g clip-path="url(#clip0_1_5)">
<path d="M287.123 28.4707C288.937 25.3916 291.404 22.9241 294.483 21.1737H294.504C297.584 19.36 300.979 18.4532 304.564 18.4532H331.074V12.0419H304.564C297.373 12.0419 291.151 14.5727 286.048 19.5709L285.816 19.8029C280.67 24.9487 278.055 31.2545 278.055 38.5726C278.055 45.8906 280.67 52.1753 285.816 57.3423L286.048 57.5742C291.151 62.5725 297.373 65.0821 304.564 65.0821H331.074V58.6709H304.564C301.063 58.6709 297.773 57.8273 294.779 56.1823L294.483 56.0136C291.404 54.1999 288.916 51.7324 287.123 48.6534C285.352 45.5743 284.466 42.1789 284.466 38.5726C284.466 34.9663 285.309 31.7817 286.954 28.787L287.123 28.4918V28.4707Z" fill="#1A3234"/>
<path d="M270.661 12.0419H264.25V65.0821H270.661V12.0419Z" fill="#1A3234"/>
<path d="M251.943 17.2088L251.795 17.0612C248.505 13.7291 244.477 12.0419 239.837 12.0419C235.198 12.0419 233.848 12.8222 231.233 14.3407H231.212C229.145 15.5849 227.416 17.1877 226.045 19.128C224.716 17.2721 223.05 15.7115 221.046 14.4883L220.814 14.3407C218.242 12.8011 215.352 12.0208 212.252 12.0208C207.676 12.0208 203.69 13.6658 200.4 16.8925L200.252 17.0401C196.962 20.3301 195.296 24.3582 195.296 28.9979V65.061H201.707V28.9979C201.707 26.1719 202.656 23.8099 204.576 21.7431L204.765 21.5533C206.874 19.4654 209.321 18.432 212.273 18.432C215.226 18.432 217.651 19.4443 219.718 21.5533H219.739C221.827 23.6833 222.839 26.1086 222.839 28.9979V65.061H229.314V28.9979C229.314 26.1719 230.263 23.8099 232.182 21.7431L232.372 21.5533C234.48 19.4654 236.927 18.432 239.879 18.432C242.832 18.432 245.152 19.4022 247.176 21.3846L247.324 21.5533C249.433 23.6622 250.445 26.0875 250.445 28.9979V65.061H256.856V28.9979C256.856 24.4215 255.212 20.4566 251.985 17.1877L251.943 17.2088Z" fill="#1A3234"/>
<path d="M119.94 20.0349L119.708 19.8029C114.562 14.657 108.256 12.0419 100.938 12.0419C93.6203 12.0419 87.5254 14.5727 82.4218 19.5709L82.1898 19.8029C77.0439 24.9487 74.4288 31.2545 74.4288 38.5726V65.0821H80.8401V38.5726C80.8401 35.0717 81.6836 31.7817 83.3286 28.787L83.4973 28.4918C85.2899 25.4127 87.7785 22.9452 90.8787 21.1948C93.9577 19.4022 97.3532 18.4742 100.959 18.4742C104.566 18.4742 107.94 19.3811 111.019 21.1737H111.04C114.119 22.9452 116.566 25.4127 118.337 28.4707V28.5129C120.151 31.5919 121.058 34.9663 121.058 38.5726V65.0821H127.469V38.5726C127.469 31.381 124.938 25.1596 119.94 20.056V20.0349Z" fill="#1A3234"/>
<path d="M67.0354 12.0419H60.6241V65.0821H67.0354V12.0419Z" fill="#1A3234"/>
<path d="M180.163 19.6766C174.996 14.5096 168.732 11.9156 161.393 11.9156C154.075 11.9156 147.79 14.5096 142.623 19.6766C137.456 24.8435 134.862 31.1071 134.862 38.4463V64.9558H141.274V44.1193H181.491V64.9558H187.903V38.4463C187.903 31.1282 185.309 24.8435 180.142 19.6766H180.163ZM151.312 21.0474C154.412 19.2337 157.766 18.3268 161.393 18.3268C165.021 18.3268 168.374 19.2337 171.474 21.0474C174.574 22.8189 176.999 25.2442 178.771 28.3444C180.458 31.2336 181.365 34.3338 181.47 37.687H141.295C141.4 34.3338 142.286 31.2336 143.931 28.3444C145.745 25.2442 148.191 22.8189 151.291 21.0474H151.312Z" fill="#1A3234"/>
<path d="M173.562 6.47452V0.0211182H149.224V6.47452H173.562Z" fill="#1A3234"/>
<path d="M383.367 20.2882L383.135 20.0563C378.052 14.9737 371.831 12.4008 364.618 12.4008C357.406 12.4008 351.374 14.8893 346.355 19.8243L346.123 20.0563C341.04 25.1177 338.467 31.3392 338.467 38.5307V64.7028H344.161V43.8663H385.096V64.7028H390.79V38.5096C390.79 31.4235 388.281 25.2865 383.367 20.2672V20.2882ZM354.348 20.8787L354.537 20.7733C357.638 19.0018 361.012 18.116 364.618 18.116C368.224 18.116 371.746 19.044 374.889 20.8787H374.91C378.01 22.6714 380.499 25.1388 382.27 28.239L382.312 28.3234C384.084 31.3602 385.012 34.6713 385.075 38.1933H344.161C344.225 34.6713 345.131 31.3392 346.861 28.3234C348.696 25.181 351.226 22.6714 354.348 20.8787Z" fill="#1A3234"/>
<path d="M45.4697 19.8029C40.3028 14.6359 34.0392 12.0419 26.7 12.0419H0.190491V65.0821H26.7C34.0181 65.0821 40.3028 62.4881 45.4697 57.3212C50.6367 52.1542 53.2307 45.8906 53.2307 38.5515C53.2307 31.2123 50.6367 24.9487 45.4697 19.7818V19.8029ZM36.8019 56.0136C33.7018 57.7851 30.3485 58.6709 26.7211 58.6709H6.60171V18.4532H26.7C30.3274 18.4532 33.6807 19.36 36.7808 21.1737C39.881 22.9452 42.3063 25.3705 44.0778 28.4707C45.8915 31.5708 46.7984 34.9241 46.7984 38.5515C46.7984 42.1789 45.8915 45.5321 44.0778 48.6323C42.3063 51.7324 39.881 54.1788 36.7808 55.9925L36.8019 56.0136Z" fill="#1A3234"/>
</g>
<defs>
<clipPath id="clip0_1_5">
<rect width="391" height="65.1667" fill="white"/>
</clipPath>
</defs>
</svg>
